<svg xmlns="http://www.w3.org/2000/svg" viewBox="0 0 32 32"><g fill="none" fill-rule="evenodd"><path fill="#2B3582" d="M0 32h32V0H0z"/><path fill="#FFF" d="M10.97 10.29H7.26v6.64H4.14v-6.64H0v9.77h11.91c3.07 0 4.8-1.84 4.8-4.74 0-3.6-2.23-5.03-5.74-5.03m.16 6.84h-.23v-3.78h.24c1.38 0 2.23.58 2.23 1.96 0 1.28-.97 1.82-2.24 1.82"/><path fill="#0096C8" d="M29.98 17.09c-1.14 0-2.13-.83-2.13-1.9 0-1.07.94-1.92 2.08-1.91.78 0 1.49.38 2.07.85v-3.6a8.46 8.46 0 00-2.5-.4c-3.07 0-5.48 2.29-5.48 5.14 0 .59.11 1.14.3 1.66H21V10.3h-3.8v9.78h7.42v-2.5a5.31 5.31 0 004.73 2.66 9.6 9.6 0 002.66-.37v-3.55c-.57.47-1.22.77-2.02.77"/></g></svg>